<svg width="312" height="451" viewBox="0 0 312 451" fill="none" xmlns="http://www.w3.org/2000/svg">
<g clip-path="url(#clip0_18_2)">
<rect x="42" y="32" width="225" height="277" fill="#3C3572"/>
<path d="M40.9097 10.2245C25.4056 10.2957 12.7832 23.0377 12.8563 38.542L13.0501 79.6739L13.1243 95.3835L13.1822 107.662L13.2404 120.024L13.8841 256.653L14.2819 341.087C18.7047 339.569 23.1028 337.972 27.4633 336.283L26.1189 51.1857C26.0627 36.3711 37.4004 24.0929 51.8793 22.6902C52.736 22.6077 53.602 22.5637 54.4783 22.5601L251.398 21.6332C251.541 17.4817 251.598 13.3522 251.569 9.22957" fill="#493F92"/>
<path d="M51.8818 22.6877C37.403 24.0904 26.0653 36.3682 26.1215 51.1832L27.4658 336.28C28.4404 335.903 29.4134 335.521 30.384 335.134C31.3544 334.748 32.3234 334.359 33.29 333.965L31.9569 51.156C31.8882 39.411 40.9651 29.5925 52.4411 28.4961C53.1227 28.4304 53.8103 28.3951 54.5079 28.3916L251.152 27.4659C251.203 26.4914 251.248 25.5167 251.286 24.5427C251.329 23.5708 251.367 22.6002 251.401 21.6311L54.4809 22.558C53.6046 22.5616 52.7386 22.6052 51.8818 22.6877Z" fill="#F8DAD0"/>
<path d="M293.476 427.895C293.678 427.547 293.882 427.2 294.068 426.843C294.295 426.408 294.499 425.962 294.703 425.514C294.868 425.154 295.04 424.797 295.19 424.429C295.381 423.959 295.543 423.476 295.709 422.995C295.835 422.63 295.972 422.27 296.083 421.899C296.236 421.386 296.355 420.86 296.479 420.336C296.564 419.979 296.664 419.628 296.735 419.267C296.85 418.676 296.925 418.072 297.002 417.469C297.042 417.161 297.102 416.859 297.131 416.547C297.219 415.627 297.265 414.695 297.261 413.752L295.486 37.2008C295.483 36.3529 295.441 35.5134 295.362 34.6842C295.356 34.6223 295.342 34.5633 295.336 34.5018C295.298 34.123 295.229 33.7539 295.176 33.3799C295.1 32.8436 295.029 32.3058 294.922 31.7795C294.844 31.3937 294.74 31.0179 294.646 30.6374C294.523 30.1376 294.403 29.638 294.254 29.1493C294.137 28.7662 293.998 28.393 293.864 28.0167C293.699 27.5475 293.533 27.079 293.344 26.6213C293.189 26.2493 293.017 25.8867 292.847 25.5228C292.642 25.0801 292.434 24.6403 292.205 24.2106C292.016 23.8538 291.813 23.5058 291.609 23.1582C291.365 22.743 291.117 22.3316 290.852 21.9299C290.63 21.5915 290.397 21.2616 290.161 20.9335C289.881 20.5456 289.595 20.1642 289.297 19.7911C289.045 19.4757 288.785 19.1667 288.519 18.8622C288.206 18.5025 287.884 18.1521 287.552 17.8086C287.273 17.5182 286.988 17.2319 286.696 16.9538C286.35 16.6244 285.994 16.3074 285.632 15.9955C285.327 15.7332 285.02 15.4725 284.704 15.2232C284.327 14.925 283.938 14.6425 283.545 14.3637C283.219 14.1324 282.894 13.9003 282.558 13.6826C282.15 13.4179 281.73 13.173 281.307 12.929C280.963 12.73 280.621 12.5278 280.268 12.3434C279.83 12.1137 279.378 11.9082 278.926 11.7017C278.569 11.5389 278.217 11.3685 277.853 11.2205C277.379 11.0277 276.892 10.864 276.406 10.6965C276.044 10.5717 275.688 10.4356 275.32 10.3256C274.802 10.1711 274.273 10.051 273.744 9.92591C273.39 9.84236 273.044 9.74291 272.686 9.67316C272.093 9.55726 271.488 9.48237 270.882 9.40486C270.575 9.36525 270.273 9.30501 269.963 9.27575C269.042 9.18842 268.109 9.14204 267.166 9.14657L251.601 9.2203C251.63 13.343 251.572 17.4724 251.43 21.6239L253.709 21.6132C268.522 21.5553 280.801 32.8895 282.204 47.3688C282.286 48.2255 282.33 49.093 282.336 49.9691L283.991 401.111C284.048 415.926 272.711 428.204 258.232 429.607C257.373 429.69 256.508 429.733 255.632 429.739L56.433 430.678C41.6178 430.733 29.3387 419.397 27.936 404.918C27.8538 404.065 27.8095 403.195 27.8054 402.314L27.8059 402.319L27.4947 336.274C23.1342 337.963 18.7362 339.56 14.3133 341.077L14.4988 380.492L14.662 415.086C14.6655 415.934 14.7076 416.773 14.786 417.602C14.7919 417.664 14.8058 417.723 14.8121 417.784C14.8505 418.164 14.9193 418.535 14.9726 418.911C15.049 419.445 15.1196 419.981 15.2255 420.505C15.3042 420.894 15.4087 421.272 15.5032 421.654C15.6258 422.151 15.7456 422.649 15.894 423.136C16.0118 423.52 16.1516 423.894 16.2847 424.272C16.4499 424.74 16.6147 425.206 16.8033 425.662C16.9584 426.037 17.1319 426.401 17.3026 426.768C17.5079 427.207 17.7149 427.645 17.9413 428.072C18.1318 428.432 18.337 428.782 18.5422 429.131C18.7852 429.544 19.0318 429.954 19.2943 430.353C19.5179 430.693 19.7522 431.025 19.9897 431.355C20.268 431.74 20.5523 432.12 20.8493 432.491C21.1035 432.809 21.3648 433.12 21.6321 433.427C21.9437 433.784 22.2637 434.132 22.5931 434.474C22.875 434.766 23.1609 435.053 23.4553 435.333C23.8002 435.661 24.1547 435.978 24.5154 436.288C24.8213 436.551 25.1288 436.812 25.4453 437.062C25.8218 437.36 26.2098 437.641 26.6013 437.92C26.9291 438.152 27.2555 438.385 27.5929 438.604C27.9996 438.867 28.4178 439.111 28.8382 439.354C29.1837 439.554 29.527 439.757 29.8816 439.942C30.3192 440.171 30.7689 440.375 31.2193 440.581C31.5777 440.745 31.9324 440.916 32.298 441.065C32.7696 441.257 33.2545 441.42 33.7386 441.587C34.1015 441.712 34.4596 441.849 34.8293 441.959C35.3457 442.114 35.8748 442.234 36.4028 442.359C36.7562 442.442 37.104 442.542 37.4623 442.612C38.0573 442.728 38.665 442.803 39.2719 442.881C39.577 442.92 39.8753 442.98 40.1839 443.009C41.105 443.096 42.037 443.143 42.9812 443.138L79.9186 442.964L84.5993 442.942L93.4184 442.901L148.535 442.641L160.899 442.583L185.282 442.468L269.207 442.074C270.074 442.07 270.93 442.026 271.777 441.944C271.83 441.939 271.881 441.927 271.933 441.922C272.296 441.884 272.65 441.816 273.008 441.766C273.559 441.688 274.111 441.615 274.652 441.505C275.031 441.428 275.4 441.324 275.774 441.232C276.279 441.107 276.785 440.986 277.279 440.834C277.658 440.718 278.027 440.579 278.399 440.448C278.871 440.281 279.343 440.114 279.804 439.923C280.175 439.769 280.535 439.596 280.898 439.427C281.34 439.221 281.78 439.013 282.21 438.785C282.568 438.595 282.916 438.39 283.264 438.185C283.678 437.942 284.088 437.695 284.488 437.431C284.828 437.208 285.159 436.973 285.488 436.736C285.873 436.457 286.252 436.174 286.623 435.877C286.941 435.622 287.252 435.36 287.559 435.092C287.915 434.78 288.262 434.462 288.602 434.134C288.895 433.851 289.184 433.563 289.464 433.267C289.79 432.925 290.104 432.573 290.413 432.215C290.678 431.906 290.941 431.595 291.194 431.275C291.488 430.902 291.766 430.519 292.041 430.132C292.276 429.801 292.511 429.471 292.732 429.13C292.993 428.727 293.235 428.312 293.476 427.895Z" fill="#3B3189"/>
<path d="M249.46 48.373C254.805 49.7815 258.758 54.6366 258.786 60.4273C258.816 66.9545 253.849 72.34 247.477 72.9535C247.096 72.9902 246.709 73.0099 246.319 73.0114C246.151 73.0124 245.983 73.0096 245.816 73.004C240.466 102.094 231.494 130.521 219.134 157.395C215.936 164.354 212.507 171.212 208.855 177.946C208.85 177.955 208.846 177.963 208.841 177.972C213.212 181.21 218.915 183.972 226.543 186.17C223.948 187.36 221.467 188.732 219.209 190.335C210.545 196.48 205.77 206.486 202.794 215.481C201.884 218.237 201.151 221.036 200.562 223.857C200.255 225.314 199.99 226.779 199.755 228.249C199.597 229.242 199.374 229.857 199.211 232.116C196.676 225.093 193.56 216.972 189.295 209.755C189.295 209.755 189.294 209.756 189.293 209.756C187.1 212.921 184.851 216.048 182.549 219.134C175.712 228.306 168.404 237.122 160.678 245.549C160.674 245.554 160.67 245.558 160.665 245.563C163.323 247.354 166.135 248.988 169.092 250.442C181.351 256.471 194.509 258.643 207.179 257.423C220.218 256.168 232.739 251.323 243.25 243.396C241.968 247.363 240.384 251.297 238.485 255.157C224.689 283.209 197.77 300.515 168.78 303.306C153.279 304.799 137.191 302.144 122.191 294.767C118.78 293.089 115.528 291.217 112.442 289.172C88.1178 307.389 61.452 322.493 33.3175 333.956L33.6392 402.291L33.6397 402.296C33.6409 402.988 33.6765 403.674 33.7422 404.357C34.8387 415.833 44.6589 424.91 56.404 424.842L255.601 423.902C256.299 423.899 256.99 423.863 257.671 423.797C269.147 422.701 278.225 412.884 278.154 401.138L276.499 49.9965C276.495 49.2973 276.461 48.6078 276.396 47.9262C275.3 36.452 265.479 27.3772 253.734 27.4455L251.179 27.4575C251.117 28.6611 251.047 29.8644 250.972 31.0686C250.611 36.8484 250.106 42.6197 249.46 48.373Z" fill="#3B3189"/>
<path d="M251.18 27.4584L253.734 27.4464C265.48 27.3777 275.3 36.4526 276.396 47.9271C276.462 48.6084 276.495 49.2979 276.499 49.9974L278.155 401.138C278.225 412.885 269.148 422.702 257.672 423.798C256.991 423.864 256.299 423.899 255.602 423.903L56.4043 424.842C44.6596 424.911 34.839 415.834 33.7425 404.358C33.6768 403.675 33.6416 402.989 33.6401 402.297L33.6396 402.291L33.3178 333.957C32.3508 334.351 31.3819 334.741 30.4115 335.126C29.4408 335.513 28.4678 335.895 27.4933 336.273L27.8045 402.319L27.804 402.313C27.8081 403.195 27.8524 404.064 27.9345 404.917C29.3373 419.396 41.6164 430.733 56.4315 430.677L255.63 429.738C256.507 429.733 257.372 429.689 258.231 429.606C272.71 428.204 284.046 415.926 283.99 401.111L282.334 49.9684C282.329 49.0919 282.285 48.2248 282.202 47.3681C280.8 32.8892 268.521 21.555 253.707 21.6125L251.428 21.6232C251.395 22.5923 251.357 23.5633 251.314 24.5348C251.276 25.5096 251.231 26.4843 251.18 27.4584Z" fill="#826899"/>
<path d="M112.416 289.179C112.424 289.173 112.432 289.167 112.44 289.161C76.5712 265.389 63.0579 218.125 82.5532 178.487C97.2088 148.691 126.644 131.027 157.652 129.982C149.03 136.466 141.76 145.019 136.67 155.364C120.813 187.608 131.667 226.02 160.653 245.555C168.379 237.128 175.686 228.312 182.524 219.14C184.826 216.053 187.075 212.926 189.268 209.762C183.814 200.531 176.481 192.774 166.077 190.677C184.14 182.377 192.45 171.267 194.112 154.454C196.877 163.643 200.375 171.682 208.829 177.952C212.481 171.217 215.91 164.36 219.108 157.401C231.469 130.527 240.44 102.101 245.79 73.0102C245.791 73.0049 245.792 73 245.793 72.995C239.105 72.7635 233.74 67.3 233.707 60.5509C233.675 53.6329 239.256 47.9982 246.174 47.9668C247.303 47.9612 248.391 48.119 249.433 48.3938C249.433 48.389 249.434 48.3841 249.434 48.3796C250.08 42.6263 250.585 36.8546 250.946 31.0763C251.021 29.8721 251.091 28.6688 251.154 27.4651L54.5095 28.3908C53.8119 28.3943 53.1243 28.4297 52.4427 28.4953C40.9667 29.5917 31.8902 39.4101 31.9585 51.1552L33.2916 333.964C61.426 322.5 88.0919 307.395 112.416 289.179Z" fill="#493F92"/>
</g>
<defs>
<clipPath id="clip0_18_2">
<rect width="312" height="451" fill="white"/>
</clipPath>
</defs>
</svg>
